ModelForces
version=1
nRows=39
nColumns=15
inDegrees=no

This file contains the forces exerted on a model during a simulation.

A force is a generalized force, meaning that it can be either a force (N) or a torque (Nm).

Units are S.I. units (second, meters, Newtons, ...)
Angles are in degrees.

endheader
time	Liu	Thelen	contactForce.block.force.X	contactForce.block.force.Y	contactForce.block.force.Z	contactForce.block.torque.X	contactForce.block.torque.Y	contactForce.block.torque.Z	contactForce.ground.force.X	contactForce.ground.force.Y	contactForce.ground.force.Z	contactForce.ground.torque.X	contactForce.ground.torque.Y	contactForce.ground.torque.Z
      0.88483650	      1.57640376	   2013.85928901	      0.00000000	    558.15130495	    139.53711192	     -6.89898855	     -0.00000000	      0.00000000	     -0.00000000	   -558.15130495	   -139.53711192	   -123.45290338	      0.00000000	     -0.00000000
      0.88520809	      1.53012227	   2619.70754470	      0.00000000	    564.37760720	    141.09367038	     -6.97506411	     -0.00000000	      0.00000000	     -0.00000000	   -564.37760720	   -141.09367038	   -126.13611941	      0.00000000	     -0.00000000
      0.88553276	      1.48991693	    722.18534861	      0.00000000	    567.72586816	    141.93072020	     -7.01596422	     -0.00000000	      0.00000000	     -0.00000000	   -567.72586816	   -141.93072020	   -128.02576930	      0.00000000	     -0.00000000
      0.88585743	      1.44997775	   2425.87976532	      0.00000000	    569.10229679	    142.27481785	     -7.03277302	     -0.00000000	      0.00000000	     -0.00000000	   -569.10229679	   -142.27481785	   -129.47267692	      0.00000000	     -0.00000000
      0.88630231	      1.39567873	   3374.85366720	      0.00000000	    567.77579629	    141.94318124	     -7.01656149	     -0.00000000	      0.00000000	     -0.00000000	   -567.77579629	   -141.94318124	   -130.71242037	      0.00000000	     -0.00000000
      0.88658700	      1.36117565	   1352.87690067	      0.00000000	    564.98442686	    141.24533075	     -6.98245526	     -0.00000000	      0.00000000	     -0.00000000	   -564.98442686	   -141.24533075	   -131.04450104	      0.00000000	     -0.00000000
      0.88687170	      1.32690987	   2731.76797784	      0.00000000	    560.68765338	    140.17113468	     -6.92995066	     -0.00000000	      0.00000000	     -0.00000000	   -560.68765338	   -140.17113468	   -131.00852586	      0.00000000	     -0.00000000
      0.88724922	      1.28182505	   3594.25729603	      0.00000000	    552.69997699	    138.17421346	     -6.83232309	     -0.00000000	      0.00000000	     -0.00000000	   -552.69997699	   -138.17421346	   -130.38807721	      0.00000000	     -0.00000000
      0.88754450	      1.24683015	   1608.60492435	      0.00000000	    544.66785761	    136.16618121	     -6.73412166	     -0.00000000	      0.00000000	     -0.00000000	   -544.66785761	   -136.16618121	   -129.44623872	      0.00000000	     -0.00000000
      0.88783977	      1.21211509	   3083.83865111	      0.00000000	    535.10541311	    133.77557350	     -6.61716969	     -0.00000000	      0.00000000	     -0.00000000	   -535.10541311	   -133.77557350	   -128.10242161	      0.00000000	     -0.00000000
      0.88826034	      1.16314562	   4180.34012938	      0.00000000	    518.92816687	    129.73126906	     -6.41921404	     -0.00000000	      0.00000000	     -0.00000000	   -518.92816687	   -129.73126906	   -125.50020117	      0.00000000	     -0.00000000
      0.88852179	      1.13296655	   2091.75030183	      0.00000000	    507.41385104	    126.85269358	     -6.27823820	     -0.00000000	      0.00000000	     -0.00000000	   -507.41385104	   -126.85269358	   -123.48116351	      0.00000000	     -0.00000000
      0.88878323	      1.10303179	   3351.52943115	      0.00000000	    494.82724384	    123.70605057	     -6.12405873	     -0.00000000	      0.00000000	     -0.00000000	   -494.82724384	   -123.70605057	   -121.15876363	      0.00000000	     -0.00000000
      0.88918002	      1.05805584	   4565.68805222	      0.00000000	    473.77521598	    118.44305948	     -5.86600622	     -0.00000000	      0.00000000	     -0.00000000	   -473.77521598	   -118.44305948	   -117.06953936	      0.00000000	     -0.00000000
      0.88943265	      1.02967948	   2387.51465723	      0.00000000	    459.21478831	    114.80296147	     -5.68739756	     -0.00000000	      0.00000000	     -0.00000000	   -459.21478831	   -114.80296147	   -114.12317597	      0.00000000	     -0.00000000
      0.88968528	      1.00154953	   3628.30001954	      0.00000000	    443.80747489	    110.95114722	     -5.49828558	     -0.00000000	      0.00000000	     -0.00000000	   -443.80747489	   -110.95114722	   -110.91835793	      0.00000000	     -0.00000000
      0.89003434	      0.96307102	   4412.76562374	      0.00000000	    421.21825300	    105.30386274	     -5.22080760	     -0.00000000	      0.00000000	     -0.00000000	   -421.21825300	   -105.30386274	   -106.08309828	      0.00000000	     -0.00000000
      0.89032348	      0.93152759	   2551.37430016	      0.00000000	    401.45326179	    100.36263225	     -4.97781252	     -0.00000000	      0.00000000	     -0.00000000	   -401.45326179	   -100.36263225	   -101.73843453	      0.00000000	     -0.00000000
      0.89061262	      0.90032138	   3988.33300560	      0.00000000	    380.82135012	     95.20467708	     -4.72395148	     -0.00000000	      0.00000000	     -0.00000000	   -380.82135012	    -95.20467708	    -97.10393916	      0.00000000	     -0.00000000
      0.89101613	      0.85732481	   4360.29462032	      0.00000000	    350.74522580	     87.68567917	     -4.35350516	     -0.00000000	      0.00000000	     -0.00000000	   -350.74522580	    -87.68567917	    -90.18894253	      0.00000000	     -0.00000000
      0.89134655	      0.82260691	   2525.34252980	      0.00000000	    325.15725182	     81.28871455	     -4.03798331	     -0.00000000	      0.00000000	     -0.00000000	   -325.15725182	    -81.28871455	    -84.17376408	      0.00000000	     -0.00000000
      0.89167697	      0.78835871	   4626.07815901	      0.00000000	    298.85495611	     74.71317576	     -3.71331238	     -0.00000000	      0.00000000	     -0.00000000	   -298.85495611	    -74.71317576	    -77.87658063	      0.00000000	     -0.00000000
      0.89200739	      0.75455659	   2776.24895258	      0.00000000	    271.98314133	     67.99525682	     -3.38125408	     -0.00000000	      0.00000000	     -0.00000000	   -271.98314133	    -67.99525682	    -71.33387595	      0.00000000	     -0.00000000
      0.89233780	      0.72124401	   4867.42935182	      0.00000000	    244.68806752	     61.17152904	     -3.04359605	     -0.00000000	      0.00000000	     -0.00000000	   -244.68806752	    -61.17152904	    -64.58263354	      0.00000000	     -0.00000000
      0.89266822	      0.68839458	   2854.10378728	      0.00000000	    217.11991098	     54.27953052	     -2.70218148	     -0.00000000	      0.00000000	     -0.00000000	   -217.11991098	    -54.27953052	    -57.66291374	      0.00000000	     -0.00000000
      0.89299864	      0.65605311	   5166.12673420	      0.00000000	    189.42891526	     47.35682793	     -2.35886311	     -0.00000000	      0.00000000	     -0.00000000	   -189.42891526	    -47.35682793	    -50.61500696	      0.00000000	     -0.00000000
      0.89329057	      0.62787439	   3406.33244060	      0.00000000	    164.98336169	     41.24548038	     -2.05546350	     -0.00000000	      0.00000000	     -0.00000000	   -164.98336169	    -41.24548038	    -44.31563879	      0.00000000	     -0.00000000
      0.89358250	      0.60010472	   4878.08147412	      0.00000000	    140.66487506	     35.16590354	     -1.75334446	     -0.00000000	      0.00000000	     -0.00000000	   -140.66487506	    -35.16590354	    -37.97882622	      0.00000000	     -0.00000000
      0.89397030	      0.56383001	   3284.49284638	      0.00000000	    108.73514512	     27.18353192	     -1.35621837	     -0.00000000	      0.00000000	     -0.00000000	   -108.73514512	    -27.18353192	    -29.55515950	      0.00000000	     -0.00000000
      0.89425094	      0.53804566	   5103.04481628	      0.00000000	     86.01919341	     21.50459174	     -1.07337829	     -0.00000000	      0.00000000	     -0.00000000	    -86.01919341	    -21.50459174	    -23.49165719	      0.00000000	     -0.00000000
      0.89453158	      0.51263366	   4487.94679584	      0.00000000	     63.73318452	     15.93313803	     -0.79564063	     -0.00000000	      0.00000000	     -0.00000000	    -63.73318452	    -15.93313803	    -17.48637164	      0.00000000	     -0.00000000
      0.89488248	      0.48143060	   5670.26581887	      0.00000000	     36.60726065	      9.15172087	     -0.45725077	     -0.00000000	      0.00000000	     -0.00000000	    -36.60726065	     -9.15172087	    -10.10098645	      0.00000000	     -0.00000000
      0.89516543	      0.45670602	   3958.01081176	      0.00000000	     15.43754825	      3.85934585	     -0.19290767	     -0.00000000	      0.00000000	     -0.00000000	    -15.43754825	     -3.85934585	     -4.27874350	      0.00000000	     -0.00000000
      0.89544839	      0.43240127	   5353.64778951	      0.00000000	      0.00000000	      0.00000000	      0.00000000	      0.00000000	      0.00000000	      0.00000000	      0.00000000	      0.00000000	      0.00000000	      0.00000000	      0.00000000
      0.89582211	      0.40092519	   3829.49581323	      0.00000000	      0.00000000	      0.00000000	      0.00000000	      0.00000000	      0.00000000	      0.00000000	      0.00000000	      0.00000000	      0.00000000	      0.00000000	      0.00000000
      0.89610026	      0.37798779	   5558.99585598	      0.00000000	      0.00000000	      0.00000000	      0.00000000	      0.00000000	      0.00000000	      0.00000000	      0.00000000	      0.00000000	      0.00000000	      0.00000000	      0.00000000
      0.89637841	      0.35544980	   4853.26697385	      0.00000000	      0.00000000	      0.00000000	      0.00000000	      0.00000000	      0.00000000	      0.00000000	      0.00000000	      0.00000000	      0.00000000	      0.00000000	      0.00000000
      0.89671692	      0.32860157	   6028.73352413	      0.00000000	      0.00000000	      0.00000000	      0.00000000	      0.00000000	      0.00000000	      0.00000000	      0.00000000	      0.00000000	      0.00000000	      0.00000000	      0.00000000
      0.89700843	      0.30597001	   4339.27218820	      0.00000000	      0.00000000	      0.00000000	      0.00000000	      0.00000000	      0.00000000	      0.00000000	      0.00000000	      0.00000000	      0.00000000	      0.00000000	      0.00000000
